HIERARCHY
ROOT hip
{
  OFFSET 0 0 0
  CHANNELS 6 Xposition Yposition Zposition Zrotation Yrotation Xrotation
  JOINT abdomen
  {
    OFFSET 0 20.6881 -0.73152
    CHANNELS 3 Zrotation Xrotation Yrotation
    JOINT chest
    {
      OFFSET 0 11.7043 -0.48768
      CHANNELS 3 Zrotation Xrotation Yrotation
      JOINT neck
      {
        OFFSET 0 22.1894 -2.19456
        CHANNELS 3 Zrotation Xrotation Yrotation
        JOINT head
        {
          OFFSET -0.24384 7.07133 1.2192
          CHANNELS 3 Zrotation Xrotation Yrotation
          JOINT leftEye
          {
            OFFSET 4.14528 8.04674 8.04672
            CHANNELS 3 Zrotation Xrotation Yrotation
            End Site
            {
              OFFSET 1 0 0
            }
          }
          JOINT rightEye
          {
            OFFSET -3.6576 8.04674 8.04672
            CHANNELS 3 Zrotation Xrotation Yrotation
            End Site
            {
              OFFSET 1 0 0
            }
          }
        }
      }
      JOINT rCollar
      {
        OFFSET -2.68224 19.2634 -4.8768
        CHANNELS 3 Zrotation Xrotation Yrotation
        JOINT rShldr
        {
          OFFSET -8.77824 -1.95073 1.46304
          CHANNELS 3 Zrotation Xrotation Yrotation
          JOINT rForeArm
          {
            OFFSET -28.1742 -1.7115 0.48768
            CHANNELS 3 Zrotation Xrotation Yrotation
            JOINT rHand
            {
              OFFSET -22.5879 0.773209 7.07136
              CHANNELS 3 Zrotation Xrotation Yrotation
              JOINT rThumb1
              {
                OFFSET -1.2192 -0.487915 3.41376
                CHANNELS 3 Zrotation Xrotation Yrotation
                JOINT rThumb2
                {
                  OFFSET -3.37035 -0.52449 3.41376
                  CHANNELS 3 Zrotation Xrotation Yrotation
                  End Site
                  {
                    OFFSET -1.78271 -1.18214 1.43049
                  }
                }
              }
              JOINT rIndex1
              {
                OFFSET -7.75947 0.938293 5.60832
                CHANNELS 3 Zrotation Xrotation Yrotation
                JOINT rIndex2
                {
                  OFFSET -2.54057 -0.884171 1.56538
                  CHANNELS 3 Zrotation Xrotation Yrotation
                  End Site
                  {
                    OFFSET -1.62519 -0.234802 1.16502
                  }
                }
              }
              JOINT rMid1
              {
                OFFSET -8.24714 1.18213 3.41376
                CHANNELS 3 Zrotation Xrotation Yrotation
                JOINT rMid2
                {
                  OFFSET -3.10165 -0.590103 1.0647
                  CHANNELS 3 Zrotation Xrotation Yrotation
                  End Site
                  {
                    OFFSET -2.48547 -0.328903 0.83742
                  }
                }
              }
              JOINT rRing1
              {
                OFFSET -8.82822 0.546677 1.51678
                CHANNELS 3 Zrotation Xrotation Yrotation
                JOINT rRing2
                {
                  OFFSET -2.60934 -0.819778 -0.0198488
                  CHANNELS 3 Zrotation Xrotation Yrotation
                  End Site
                  {
                    OFFSET -2.33842 -0.294052 0.168128
                  }
                }
              }
              JOINT rPinky1
              {
                OFFSET -8.27202 -0.0477905 -0.4584
                CHANNELS 3 Zrotation Xrotation Yrotation
                JOINT rPinky2
                {
                  OFFSET -1.82734 -0.647385 -0.700984
                  CHANNELS 3 Zrotation Xrotation Yrotation
                  End Site
                  {
                    OFFSET -1.69225 -0.51767 -0.607171
                  }
                }
              }
            }
          }
        }
      }
      JOINT lCollar
      {
        OFFSET 2.68224 19.2634 -4.8768
        CHANNELS 3 Zrotation Xrotation Yrotation
        JOINT lShldr
        {
          OFFSET 8.77824 -1.95073 1.46304
          CHANNELS 3 Zrotation Xrotation Yrotation
          JOINT lForeArm
          {
            OFFSET 28.1742 -1.7115 0.48768
            CHANNELS 3 Zrotation Xrotation Yrotation
            JOINT lHand
            {
              OFFSET 22.5879 0.773209 7.07136
              CHANNELS 3 Zrotation Xrotation Yrotation
              JOINT lThumb1
              {
                OFFSET 1.2192 -0.487915 3.41376
                CHANNELS 3 Zrotation Xrotation Yrotation
                JOINT lThumb2
                {
                  OFFSET 3.37035 -0.52449 3.41376
                  CHANNELS 3 Zrotation Xrotation Yrotation
                  End Site
                  {
                    OFFSET 1.78271 -1.18214 1.43049
                  }
                }
              }
              JOINT lIndex1
              {
                OFFSET 7.75947 0.938293 5.60832
                CHANNELS 3 Zrotation Xrotation Yrotation
                JOINT lIndex2
                {
                  OFFSET 2.54057 -0.884171 1.56538
                  CHANNELS 3 Zrotation Xrotation Yrotation
                  End Site
                  {
                    OFFSET 1.62519 -0.234802 1.16502
                  }
                }
              }
              JOINT lMid1
              {
                OFFSET 8.24714 1.18213 3.41376
                CHANNELS 3 Zrotation Xrotation Yrotation
                JOINT lMid2
                {
                  OFFSET 3.10165 -0.590103 1.0647
                  CHANNELS 3 Zrotation Xrotation Yrotation
                  End Site
                  {
                    OFFSET 2.48547 -0.328903 0.83742
                  }
                }
              }
              JOINT lRing1
              {
                OFFSET 8.82822 0.546677 1.51678
                CHANNELS 3 Zrotation Xrotation Yrotation
                JOINT lRing2
                {
                  OFFSET 2.60934 -0.819778 -0.0198488
                  CHANNELS 3 Zrotation Xrotation Yrotation
                  End Site
                  {
                    OFFSET 2.33842 -0.294052 0.168128
                  }
                }
              }
              JOINT lPinky1
              {
                OFFSET 8.27202 -0.0477905 -0.4584
                CHANNELS 3 Zrotation Xrotation Yrotation
                JOINT lPinky2
                {
                  OFFSET 1.82734 -0.647385 -0.700984
                  CHANNELS 3 Zrotation Xrotation Yrotation
                  End Site
                  {
                    OFFSET 1.69225 -0.51767 -0.607171
                  }
                }
              }
            }
          }
        }
      }
    }
  }
  JOINT rButtock
  {
    OFFSET -8.77824 4.35084 1.2192
    CHANNELS 3 Zrotation Xrotation Yrotation
    JOINT rThigh
    {
      OFFSET 0 -1.70687 -2.19456
      CHANNELS 3 Zrotation Xrotation Yrotation
      JOINT rShin
      {
        OFFSET 0 -36.8199 0.73152
        CHANNELS 3 Zrotation Xrotation Yrotation
        JOINT rFoot
        {
          OFFSET 0.73152 -45.1104 -5.12064
          CHANNELS 3 Zrotation Xrotation Yrotation
          End Site
          {
            OFFSET -1.1221 -3.69964 12.103
          }
        }
      }
    }
  }
  JOINT lButtock
  {
    OFFSET 8.77824 4.35084 1.2192
    CHANNELS 3 Zrotation Xrotation Yrotation
    JOINT lThigh
    {
      OFFSET 0 -1.70687 -2.19456
      CHANNELS 3 Zrotation Xrotation Yrotation
      JOINT lShin
      {
        OFFSET 0 -36.8199 0.73152
        CHANNELS 3 Zrotation Xrotation Yrotation
        JOINT lFoot
        {
          OFFSET -0.73152 -45.1104 -5.12064
          CHANNELS 3 Zrotation Xrotation Yrotation
          End Site
          {
            OFFSET 1.1221 -3.69964 12.103
          }
        }
      }
    }
  }
}
MOTION
Frames:	7
Frame Time:	0.00833333
94.7896 103.14 5.18331 -21.8794 -86.3724 19.9892 -3.20603 20.3015 3.63832 -0.0359625 0.752978 0.625039 3.74657 6.91994 2.48703 -4.58749 -4.34998 3.55014 -0.0 0.0 0.0 -0.0 0.0 0.0 8.8715e-15 1.60617e-13 6.55989e-15 67.8988 33.4689 5.5295 -19.4498 -12.3352 37.3605 -0.630947 -21.9682 -3.24992 -3.58945e-10 2.40962e-10 -3.76994e-10 -6.12755e-10 4.24664e-10 -6.61358e-10 -3.5894e-10 2.40964e-10 -3.76998e-10 7.73091 5.47488 0.417314 -3.58941e-10 2.40961e-10 -3.76994e-10 2.90554 0.965183 0.102902 -3.58932e-10 2.40965e-10 -3.76992e-10 10.2786 0.731801 0.0259123 -3.58942e-10 2.40967e-10 -3.76991e-10 2.22167 -0.733487 -0.20892 8.62213e-15 1.60617e-13 6.16232e-15 -80.6719 31.0987 10.8622 18.3733 -11.0939 -34.8633 0.0604982 -7.00125 0.988937 -7.38803e-10 2.05108e-10 4.36754e-11 -1.27816e-09 3.56019e-10 7.38541e-11 -7.3881e-10 2.05109e-10 4.36817e-11 -7.73091 5.47488 -0.417314 -7.38808e-10 2.05106e-10 4.36849e-11 -2.90554 0.965183 -0.102902 -7.38812e-10 2.05105e-10 4.36817e-11 -10.2786 0.731801 -0.0259123 -7.38799e-10 2.05104e-10 4.36786e-11 -2.22167 -0.733487 0.20892 -2.03217e-16 0.0 -3.88251e-19 5.21826 -27.6123 -0.0945649 -0.637252 52.4283 1.33238 -8.92948 -19.5762 -19.4824 2.03217e-16 0.0 3.88251e-19 -8.23264 -14.2971 -16.6042 0.204218 34.7938 -0.756488 6.39448 -22.4551 13.1021
95.2653 103.13 5.20784 -25.4871 -86.6116 23.6045 -3.64642 20.3196 3.81603 -0.21174 0.680076 0.648717 3.75667 6.92272 2.59769 -4.62026 -4.53916 3.7647 -0.0 0.0 0.0 -0.0 0.0 0.0 4.02251e-15 4.32353e-14 4.82014e-15 67.2317 34.3238 6.5881 -19.4561 -12.3425 37.3766 -0.636346 -22.0561 -3.26432 -4.63716e-10 1.52323e-10 -2.75221e-10 -7.96522e-10 2.71399e-10 -4.86874e-10 -4.6371e-10 1.52324e-10 -2.75226e-10 7.73091 5.47488 0.417314 -4.63713e-10 1.52321e-10 -2.75221e-10 2.90554 0.965183 0.102902 -4.63705e-10 1.52324e-10 -2.75218e-10 10.2786 0.731801 0.0259123 -4.63714e-10 1.52326e-10 -2.75217e-10 2.22167 -0.733487 -0.20892 3.79595e-15 4.32385e-14 4.45596e-15 -80.4319 31.0138 10.4835 18.2955 -11.0075 -34.6881 0.0633391 -7.16533 1.01235 -7.44293e-10 9.15727e-11 6.921e-11 -1.28718e-09 1.59599e-10 1.17888e-10 -7.443e-10 9.15749e-11 6.92163e-11 -7.73091 5.47488 -0.417314 -7.44297e-10 9.15709e-11 6.92187e-11 -2.90554 0.965183 -0.102902 -7.44301e-10 9.15698e-11 6.92158e-11 -10.2786 0.731801 -0.0259123 -7.44288e-10 9.15689e-11 6.92114e-11 -2.22167 -0.733487 0.20892 -2.03217e-16 0.0 -3.88251e-19 4.68088 -28.1377 -1.3658 -0.72781 54.6224 1.42508 -8.68626 -18.7146 -19.4143 2.03217e-16 0.0 3.88251e-19 -8.18391 -14.6379 -16.1725 0.202285 34.7708 -0.745933 6.34622 -22.3643 13.0521
95.7527 103.132 5.23932 -27.7916 -86.7251 25.9124 -4.06874 20.3162 3.92949 -0.360926 0.628539 0.65439 3.75778 6.94477 2.6851 -4.61206 -4.78673 3.93833 -0.0 0.0 0.0 -0.0 0.0 0.0 -1.36474e-15 -1.67863e-13 -1.09363e-14 66.5761 35.1224 7.61149 -19.4778 -12.368 37.4296 -0.642881 -22.1614 -3.28161 -5.78987e-10 -4.10193e-12 -9.9642e-11 -1.00035e-09 3.23019e-13 -1.84596e-10 -5.78977e-10 -4.10152e-12 -9.96507e-11 7.73091 5.47488 0.417314 -5.78984e-10 -4.10326e-12 -9.9642e-11 2.90554 0.965183 0.102902 -5.78978e-10 -4.10444e-12 -9.96392e-11 10.2786 0.731801 0.0259123 -5.78987e-10 -4.10232e-12 -9.96362e-11 2.22167 -0.733487 -0.20892 -1.51467e-15 -1.67855e-13 -1.12344e-14 -80.1752 30.9335 10.0772 18.23 -10.9354 -34.5405 0.0668249 -7.35852 1.03995 -7.25258e-10 -1.77958e-10 8.19651e-11 -1.25327e-09 -3.06948e-10 1.39769e-10 -7.25266e-10 -1.77955e-10 8.19722e-11 -7.73091 5.47488 -0.417314 -7.25262e-10 -1.7796e-10 8.19718e-11 -2.90554 0.965183 -0.102902 -7.25267e-10 -1.77962e-10 8.19692e-11 -10.2786 0.731801 -0.0259123 -7.25253e-10 -1.77962e-10 8.19621e-11 -2.22167 -0.733487 0.20892 -2.03217e-16 0.0 -3.88251e-19 4.08768 -28.5468 -2.74442 -0.840729 57.0121 1.54171 -8.54308 -17.6064 -19.7356 2.03217e-16 0.0 3.88251e-19 -8.15656 -15.0673 -15.6988 0.201767 34.813 -0.730414 6.20315 -22.1974 12.8351
96.2413 103.14 5.27383 -28.7482 -86.7371 26.8547 -4.44058 20.2836 4.02212 -0.493359 0.600431 0.657289 3.75038 6.97468 2.74283 -4.56867 -5.05477 4.05807 -0.0 0.0 0.0 -0.0 0.0 0.0 -3.0546e-15 -3.51957e-13 -2.91014e-14 65.9595 35.8545 8.53883 -19.5235 -12.4231 37.5384 -0.650795 -22.2886 -3.3025 -6.79715e-10 -1.42978e-10 5.81141e-11 -1.17834e-09 -2.4053e-10 8.71505e-11 -6.79702e-10 -1.42978e-10 5.8101e-11 7.73091 5.47488 0.417314 -6.79713e-10 -1.42978e-10 5.81142e-11 2.90554 0.965183 0.102902 -6.79709e-10 -1.42983e-10 5.8117e-11 10.2786 0.731801 0.0259123 -6.79717e-10 -1.42981e-10 5.81216e-11 2.22167 -0.733487 -0.20892 -3.11925e-15 -3.51947e-13 -2.93336e-14 -79.9148 30.8722 9.67923 18.1946 -10.8968 -34.46 0.0706798 -7.56453 1.06941 -6.90072e-10 -4.0885e-10 7.63792e-11 -1.1915e-09 -7.06792e-10 1.29894e-10 -6.90081e-10 -4.08846e-10 7.63876e-11 -7.73091 5.47488 -0.417314 -6.90075e-10 -4.08853e-10 7.63838e-11 -2.90554 0.965183 -0.102902 -6.9008e-10 -4.08854e-10 7.63816e-11 -10.2786 0.731801 -0.0259123 -6.90067e-10 -4.08853e-10 7.63717e-11 -2.22167 -0.733487 0.20892 -2.03217e-16 0.0 -3.88251e-19 3.50984 -28.6857 -4.07707 -0.962838 59.2008 1.66053 -8.28133 -16.1724 -20.0782 2.03217e-16 0.0 3.88251e-19 -8.12899 -15.5816 -15.2059 0.20399 34.9659 -0.714172 6.02289 -22.0183 12.5392
96.7295 103.14 5.29588 -28.9986 -86.657 27.0762 -4.72951 20.2139 4.13733 -0.618829 0.597816 0.672646 3.73499 7.00102 2.76443 -4.49661 -5.30541 4.11085 -0.0 0.0 0.0 -0.0 0.0 0.0 3.18857e-15 -3.88331e-13 -3.80673e-14 65.4142 36.5123 9.30662 -19.6019 -12.5191 37.7219 -0.660352 -22.4419 -3.32773 -7.40859e-10 -1.7897e-10 1.06418e-10 -1.28461e-09 -3.03126e-10 1.70043e-10 -7.40845e-10 -1.7897e-10 1.06402e-10 7.73091 5.47488 0.417314 -7.40857e-10 -1.7897e-10 1.06418e-10 2.90554 0.965183 0.102902 -7.40855e-10 -1.78976e-10 1.06421e-10 10.2786 0.731801 0.0259123 -7.40863e-10 -1.78974e-10 1.06428e-10 2.22167 -0.733487 -0.20892 3.17269e-15 -3.88321e-13 -3.8266e-14 -79.6631 30.8448 9.3256 18.2069 -10.9108 -34.486 0.0745666 -7.76709 1.0984 -6.47106e-10 -4.06469e-10 4.68909e-11 -1.11695e-09 -7.03106e-10 7.86607e-11 -6.47114e-10 -4.06464e-10 4.69005e-11 -7.73091 5.47488 -0.417314 -6.47107e-10 -4.06471e-10 4.68941e-11 -2.90554 0.965183 -0.102902 -6.47114e-10 -4.06471e-10 4.68925e-11 -10.2786 0.731801 -0.0259123 -6.47102e-10 -4.06471e-10 4.68814e-11 -2.22167 -0.733487 0.20892 -2.03217e-16 0.0 -3.88251e-19 3.03605 -28.4075 -5.20199 -1.06753 60.7921 1.74677 -7.71361 -14.3266 -20.0887 2.03217e-16 0.0 3.88251e-19 -8.08024 -16.1772 -14.7168 0.210246 35.2749 -0.701443 5.8609 -21.8919 12.2514
97.2145 103.111 5.31263 -28.6983 -86.5048 26.7365 -4.93034 20.1146 4.2815 -0.735047 0.63404 0.701667 3.72092 7.02722 2.74432 -4.41122 -5.53263 4.08328 -0.0 0.0 0.0 -0.0 0.0 0.0 2.53643e-14 -1.70005e-13 -3.27777e-14 64.9557 37.0976 9.88544 -19.7192 -12.6634 37.9999 -0.67221 -22.6304 -3.3588 -7.79697e-10 3.28418e-12 -1.20629e-10 -1.34405e-09 1.26815e-11 -2.23298e-10 -7.79685e-10 3.28555e-12 -1.20646e-10 7.73091 5.47488 0.417314 -7.79696e-10 3.28605e-12 -1.2063e-10 2.90554 0.965183 0.102902 -7.79694e-10 3.27981e-12 -1.20626e-10 10.2786 0.731801 0.0259123 -7.79702e-10 3.28138e-12 -1.20617e-10 2.22167 -0.733487 -0.20892 2.53399e-14 -1.70005e-13 -3.29963e-14 -79.4174 30.8628 9.01088 18.2667 -10.9757 -34.6232 0.0782245 -7.95139 1.1248 -6.02755e-10 1.52521e-10 -2.07742e-11 -1.04174e-09 2.63034e-10 -3.90312e-11 -6.02762e-10 1.52526e-10 -2.07638e-11 -7.73091 5.47488 -0.417314 -6.02756e-10 1.5252e-10 -2.07716e-11 -2.90554 0.965183 -0.102902 -6.02764e-10 1.5252e-10 -2.07719e-11 -10.2786 0.731801 -0.0259123 -6.02753e-10 1.5252e-10 -2.07819e-11 -2.22167 -0.733487 0.20892 -2.03217e-16 0.0 -3.88251e-19 2.66623 -27.6534 -6.09675 -1.14688 61.7753 1.78274 -6.71539 -11.762 -19.6254 2.03217e-16 0.0 3.88251e-19 -8.00852 -16.8133 -14.2614 0.220848 35.7142 -0.689512 5.74292 -21.8245 12.0253
97.6855 103.037 5.31531 -28.4535 -86.3338 26.4472 -5.05878 19.9867 4.43307 -0.8385 0.703736 0.737182 3.70492 7.0572 2.68722 -4.30598 -5.75537 3.9855 -0.0 0.0 0.0 -0.0 0.0 0.0 5.89235e-14 2.13706e-13 -2.00773e-14 64.5814 37.6193 10.3035 -19.8677 -12.8467 38.3582 -0.686196 -22.849 -3.39499 -8.01598e-10 3.27404e-10 -5.27004e-10 -1.36874e-09 5.74384e-10 -9.26713e-10 -8.01591e-10 3.27407e-10 -5.27022e-10 7.73091 5.47488 0.417314 -8.01598e-10 3.27408e-10 -5.27006e-10 2.90554 0.965183 0.102902 -8.01596e-10 3.27403e-10 -5.27e-10 10.2786 0.731801 0.0259123 -8.01605e-10 3.27404e-10 -5.26989e-10 2.22167 -0.733487 -0.20892 5.88604e-14 2.13693e-13 -2.03475e-14 -79.1719 30.9163 8.72029 18.3657 -11.083 -34.8526 0.081871 -8.1296 1.15037 -5.51167e-10 1.07384e-09 -1.19386e-10 -9.55132e-10 1.85562e-09 -2.10547e-10 -5.51172e-10 1.07384e-09 -1.19375e-10 -7.73091 5.47488 -0.417314 -5.51167e-10 1.07384e-09 -1.19384e-10 -2.90554 0.965183 -0.102902 -5.51177e-10 1.07384e-09 -1.19382e-10 -10.2786 0.731801 -0.0259123 -5.51168e-10 1.07384e-09 -1.1939e-10 -2.22167 -0.733487 0.20892 -2.03217e-16 0.0 -3.88251e-19 2.39372 -26.5167 -6.82749 -1.20319 62.3302 1.77796 -5.47826 -8.59827 -18.9455 2.03217e-16 0.0 3.88251e-19 -7.92144 -17.5056 -13.8192 0.23494 36.2723 -0.677346 5.63513 -21.7853 11.8041
